<svg width="64" height="64" viewBox="0 0 64 64" fill="none" xmlns="http://www.w3.org/2000/svg">
  <defs>
    <linearGradient id="g" x1="6" y1="8" x2="54" y2="58" gradientUnits="userSpaceOnUse">
      <stop stop-color="#0E2C66" />
      <stop offset="0.5" stop-color="#1D78C4" />
      <stop offset="1" stop-color="#12A3A3" />
    </linearGradient>
  </defs>
  <rect x="5" y="5" width="54" height="54" rx="16" fill="url(#g)" />
  <path d="M21 43V21h12.2c7.1 0 11.2 4 11.2 10.3 0 6.7-4.3 11.7-12.4 11.7H21Zm7.4-6h3.2c3.7 0 5.5-2 5.5-5.6 0-3.2-1.8-4.8-5.1-4.8h-3.6V37Z" fill="white"/>
  <path d="M41 43V21h7.4v7.6l5.9-7.6H63l-8.8 10.5L63 43h-8.8l-5.8-8.1V43H41Z" fill="white"/>
</svg>
